<svg xmlns="http://www.w3.org/2000/svg" viewBox="0 0 62.28 8.68">
  <title>Ресурс 3</title>
  <g id="839d7a9c-0984-433c-8fd7-cfe981de25fc" data-name="Слой 2">
    <g id="2edea812-5465-40ea-af35-35eb0a5ec118" data-name="Слой 1">
      <path d="M62.28,8.61V4.73A2.23,2.23,0,0,0,61.66,3a2.11,2.11,0,0,0-1.5-.55,2.17,2.17,0,0,0-1.62.68V2.53h-1.2V8.61h1.22V4.91a1.21,1.21,0,0,1,1.26-1.35,1.18,1.18,0,0,1,1.22,1.35V8.61Zm-8-2.19a1.22,1.22,0,0,1-.26.9,1.45,1.45,0,0,1-1.14.35c-.77,0-1.12-.31-1.12-.86s.37-.88,1.09-.88h1.43Zm1.22,2.19V4.55c0-1.38-.84-2.09-2.51-2.09a2.49,2.49,0,0,0-2.18.88l.8.76a1.43,1.43,0,0,1,1.33-.59c.95,0,1.33.37,1.33,1.14v.43H52.63c-1.39,0-2.1.73-2.1,1.75A1.86,1.86,0,0,0,51,8.13a2.15,2.15,0,0,0,1.63.55,2,2,0,0,0,1.62-.62v.55ZM48.15,5.07H45.42a1.92,1.92,0,0,1,.16-.83,1.27,1.27,0,0,1,1.21-.77,1.25,1.25,0,0,1,1.2.77A1.92,1.92,0,0,1,48.15,5.07Zm1.21.85V5.39c0-1.73-.95-2.93-2.58-2.93S44.21,3.6,44.21,5.56c0,2.31,1.21,3.12,2.73,3.12a2.85,2.85,0,0,0,2.28-.95L48.44,7A1.82,1.82,0,0,1,47,7.63a1.5,1.5,0,0,1-1.55-1.7ZM43.47,8.61v-1h-.54c-.49,0-.66-.24-.66-.71V.07H41.05V6.93a1.55,1.55,0,0,0,1.67,1.68Zm-4-2.55H38.19a1.72,1.72,0,0,1-1.74,1.46A1.71,1.71,0,0,1,35.19,7c-.42-.46-.52-.95-.52-2.66s.1-2.21.52-2.66a1.77,1.77,0,0,1,3,.95H39.5a2.94,2.94,0,0,0-3-2.63,3.09,3.09,0,0,0-2.24.91c-.84.84-.83,1.79-.83,3.43s0,2.59.83,3.43a3.1,3.1,0,0,0,2.24.91A3,3,0,0,0,39.5,6.06ZM32,8.61v-1h-.5a.62.62,0,0,1-.67-.71V3.57H32V2.64H30.81V.79H29.59V2.64h-.7v.94h.7V6.92a1.58,1.58,0,0,0,1.67,1.69ZM26.61,5.07H23.88A1.92,1.92,0,0,1,24,4.25a1.27,1.27,0,0,1,1.21-.77,1.25,1.25,0,0,1,1.2.77A1.92,1.92,0,0,1,26.61,5.07Zm1.21.85V5.39c0-1.73-.95-2.93-2.58-2.93S22.67,3.6,22.67,5.56c0,2.31,1.21,3.12,2.73,3.12a2.85,2.85,0,0,0,2.28-.95L26.9,7a1.82,1.82,0,0,1-1.48.62,1.5,1.5,0,0,1-1.55-1.7Zm-7.68-.85H17.41a1.92,1.92,0,0,1,.16-.83,1.27,1.27,0,0,1,1.21-.77,1.25,1.25,0,0,1,1.2.77A1.92,1.92,0,0,1,20.15,5.07Zm1.21.85V5.39c0-1.73-.95-2.93-2.58-2.93S16.2,3.6,16.2,5.56c0,2.31,1.21,3.12,2.73,3.12a2.85,2.85,0,0,0,2.28-.95L20.43,7A1.82,1.82,0,0,1,19,7.63a1.5,1.5,0,0,1-1.55-1.7ZM15.54,2.53H14.23L13.05,6.81l-1.4-4.28H10.7L9.29,6.81,8.11,2.53H6.82L8.7,8.61H9.75l1.42-4.25L12.6,8.61h1ZM6.09,6.18a2.23,2.23,0,0,0-.7-1.75,2.82,2.82,0,0,0-1.6-.64l-1-.14a1.91,1.91,0,0,1-1-.4,1,1,0,0,1-.32-.79c0-.76.55-1.33,1.56-1.33A2.51,2.51,0,0,1,5,1.79L5.79,1A3.56,3.56,0,0,0,3.14,0C1.37,0,.29,1,.29,2.51A2.12,2.12,0,0,0,.91,4.14a2.92,2.92,0,0,0,1.62.68l1,.14a1.48,1.48,0,0,1,.94.36,1.15,1.15,0,0,1,.34.89C4.81,7,4.16,7.52,3,7.52A2.82,2.82,0,0,1,.86,6.7L0,7.56A3.87,3.87,0,0,0,3,8.68C4.81,8.68,6.09,7.75,6.09,6.18Z"/>
    </g>
  </g>
</svg>
